HIERARCHY
ROOT Hips
{
    OFFSET 0.000000 0.000000 0.000000
    CHANNELS 6 Xposition Yposition Zposition Zrotation Xrotation Yrotation
    JOINT Spine
    {
        OFFSET -0.000000 14.517291 0.000000
        CHANNELS 3 Zrotation Xrotation Yrotation
        JOINT Spine1
        {
            OFFSET -0.000000 37.558300 0.000000
            CHANNELS 3 Zrotation Xrotation Yrotation
            JOINT Neck
            {
                OFFSET -0.000000 37.404057 3.400369
                CHANNELS 3 Zrotation Xrotation Yrotation
                JOINT Head
                {
                    OFFSET -0.000000 24.785618 -3.540803
                    CHANNELS 3 Zrotation Xrotation Yrotation
                    End Site
                    {
                        OFFSET -0.000000 35.408028 0.000000
                    }
                }
            }
            JOINT LeftShoulder
            {
                OFFSET 6.992933 33.973492 -0.192664
                CHANNELS 3 Zrotation Xrotation Yrotation
                JOINT LeftArm
                {
                    OFFSET 21.527611 0.000000 0.000000
                    CHANNELS 3 Zrotation Xrotation Yrotation
                    JOINT LeftForeArm
                    {
                        OFFSET 56.353916 0.000000 0.000000
                        CHANNELS 3 Zrotation Xrotation Yrotation
                        JOINT LeftHand
                        {
                            OFFSET 47.774071 0.000000 0.000000
                            CHANNELS 3 Zrotation Xrotation Yrotation
                            End Site
                            {
                                OFFSET 26.556021 0.000000 0.000000
                            }
                        }
                    }
                }
            }
            JOINT RightShoulder
            {
                OFFSET -7.065357 33.973492 -0.192664
                CHANNELS 3 Zrotation Xrotation Yrotation
                JOINT RightArm
                {
                    OFFSET -21.527611 0.000000 0.000000
                    CHANNELS 3 Zrotation Xrotation Yrotation
                    JOINT RightForeArm
                    {
                        OFFSET -56.353916 0.000000 0.000000
                        CHANNELS 3 Zrotation Xrotation Yrotation
                        JOINT RightHand
                        {
                            OFFSET -47.774071 0.000000 0.000000
                            CHANNELS 3 Zrotation Xrotation Yrotation
                            End Site
                            {
                                OFFSET -26.556021 0.000000 0.000000
                            }
                        }
                    }
                }
            }
        }
    }
    JOINT LeftUpLeg
    {
        OFFSET 17.704014 0.000000 0.000000
        CHANNELS 3 Zrotation Xrotation Yrotation
        JOINT LeftLeg
        {
            OFFSET -0.000000 -81.181816 0.000000
            CHANNELS 3 Zrotation Xrotation Yrotation
            JOINT LeftFoot
            {
                OFFSET -0.000000 -62.821102 0.000000
                CHANNELS 3 Zrotation Xrotation Yrotation
                JOINT LeftToeBase
                {
                    OFFSET -0.000000 -11.507608 26.556021
                    CHANNELS 3 Zrotation Xrotation Yrotation
                    End Site
                    {
                        OFFSET -0.000000 0.000000 7.081605
                    }
                }
            }
        }
    }
    JOINT RightUpLeg
    {
        OFFSET -17.704014 0.000000 0.000000
        CHANNELS 3 Zrotation Xrotation Yrotation
        JOINT RightLeg
        {
            OFFSET -0.000000 -81.181816 0.000000
            CHANNELS 3 Zrotation Xrotation Yrotation
            JOINT RightFoot
            {
                OFFSET -0.000000 -62.821102 0.000000
                CHANNELS 3 Zrotation Xrotation Yrotation
                JOINT RightToeBase
                {
                    OFFSET -0.000000 -11.507608 26.556021
                    CHANNELS 3 Zrotation Xrotation Yrotation
                    End Site
                    {
                        OFFSET -0.000000 0.000000 7.081605
                    }
                }
            }
        }
    }
}
MOTION
Frames:    9
Frame Time:    0.008333
25.817961    154.642715    -25.088097    3.390685    5.082219    -52.225475    1.483055    -0.888206    1.883332    1.809926    -1.237754    0.643393    15.162189    -1.558188    13.979409    -8.694876    6.336111    11.330318    12.290104    -1.527398    -17.165295    -8.096277    -18.259192    -37.986240    6.162702    -37.605106    -27.698437    -25.440123    -27.173037    -45.442600    -8.295028    1.834513    -0.595203    35.072300    4.289039    78.095100    8.177434    -3.214597    103.298904    4.440240    -12.709808    19.958996    24.825310    -26.538769    10.712082    -21.593096    35.082409    -0.195429    -1.281982    -10.895023    40.303513    0.000000    0.000000    0.000000    -19.273483    -6.754860    -7.163747    6.229012    29.842239    -6.255342    16.395330    -11.914927    -8.218000    0.000000    0.000000    0.000000    
25.708548    154.244186    -25.765587    3.410178    5.172254    -52.137867    1.538612    -0.888955    1.812433    1.744657    -1.220748    0.618702    15.202563    -1.523553    13.993000    -8.765335    6.322592    11.335455    12.301823    -1.561463    -17.151413    -8.394362    -18.841240    -38.035503    5.640202    -37.153118    -27.828917    -25.302088    -26.837397    -45.410946    -8.343498    1.855964    -0.579176    35.113682    4.134696    78.116035    8.179096    -3.219056    103.279663    4.469411    -12.707594    19.963959    25.342447    -26.926373    11.087461    -21.819510    35.535446    -0.208027    -1.339802    -10.975510    40.213409    0.000000    0.000000    0.000000    -19.160583    -7.122622    -7.998015    6.211806    30.658548    -6.138127    16.001080    -12.898235    -7.698295    0.000000    0.000000    0.000000    
25.605593    153.836304    -26.416433    3.423949    5.230369    -52.066929    1.578844    -0.885118    1.761276    1.697293    -1.182302    0.600488    15.133675    -1.460381    13.974517    -8.695460    6.235105    11.335407    12.285581    -1.521825    -17.155245    -8.144501    -18.230991    -37.880196    6.255960    -37.618309    -27.696697    -25.510433    -27.131697    -45.475975    -8.391140    1.814880    -0.566798    35.149895    4.049399    78.082611    8.192649    -3.218621    103.298447    4.421156    -12.733930    20.010424    25.833679    -27.273666    11.439705    -22.072187    35.969784    -0.188631    -1.362373    -11.060824    40.131027    0.000000    0.000000    0.000000    -19.095840    -7.482512    -8.752585    6.210002    31.501040    -5.914528    15.540627    -13.878630    -7.138121    0.000000    0.000000    0.000000    
25.513435    153.440018    -27.070690    3.451217    5.274045    -52.019997    1.577354    -0.840895    1.732421    1.679267    -1.183885    0.590842    15.078306    -1.498702    13.962041    -8.601534    6.261214    11.336434    12.250231    -1.530285    -17.193163    -8.095991    -18.264683    -37.778748    6.201295    -37.586216    -27.703768    -25.543272    -27.078979    -45.540024    -8.454254    1.765764    -0.596907    35.121227    4.046886    78.060089    8.101736    -3.370645    103.358337    4.441111    -12.775683    20.021610    26.304253    -27.604198    11.778727    -22.320599    36.377567    -0.187951    -1.415379    -11.142926    40.093807    0.000000    0.000000    0.000000    -19.051249    -7.868462    -9.266597    6.320093    32.334309    -5.827874    15.089652    -14.859242    -6.683276    0.000000    0.000000    0.000000    
25.428972    153.046494    -27.712664    3.496944    5.295269    -51.971832    1.566000    -0.810037    1.685609    1.617468    -1.143742    0.574174    15.160198    -1.508229    13.993012    -8.701138    6.221843    11.342354    12.290892    -1.514650    -17.112125    -8.092419    -18.222042    -37.781986    6.297462    -37.605438    -27.722885    -25.502977    -27.105402    -45.493999    -8.475217    1.777225    -0.655780    35.152279    3.947443    78.129791    8.089066    -3.386249    103.380997    4.460634    -12.777070    19.998199    26.723166    -27.940199    12.092738    -22.549240    36.779411    -0.117305    -1.489629    -11.217507    40.013336    0.000000    0.000000    0.000000    -19.035723    -8.297306    -9.775317    6.364125    33.266171    -5.627481    14.699126    -15.831013    -6.312761    0.000000    0.000000    0.000000    
25.342421    152.651047    -28.333136    3.516707    5.296107    -51.946941    1.548015    -0.767207    1.678309    1.591507    -1.099503    0.571062    15.138624    -1.479847    13.978864    -8.682603    6.125409    11.329221    12.264113    -1.580510    -17.173969    -8.341739    -18.791206    -37.782810    5.794879    -37.139427    -27.895939    -25.325115    -26.768110    -45.441933    -8.526858    1.726085    -0.670188    35.190807    3.906424    78.086617    8.047798    -3.433126    103.433372    4.456055    -12.779095    20.063829    27.134041    -28.223499    12.404130    -22.768108    37.175556    -0.031176    -1.557183    -11.306505    39.917931    0.000000    0.000000    0.000000    -19.031231    -8.699492    -10.051690    6.637888    34.156994    -5.561876    14.126117    -16.851780    -6.274190    0.000000    0.000000    0.000000    
25.256952    152.262238    -28.950459    3.549267    5.290626    -51.918007    1.508308    -0.727179    1.650489    1.569146    -1.069270    0.561428    15.132512    -1.480987    13.960927    -8.665870    6.090950    11.310164    12.278316    -1.504080    -17.165545    -8.122751    -18.427668    -37.669392    6.166024    -37.475063    -27.853868    -25.449352    -27.008640    -45.468479    -8.550065    1.692202    -0.660617    35.192394    3.875124    78.055573    7.989585    -3.528975    103.516159    4.530032    -12.803647    20.024469    27.528555    -28.502642    12.655018    -23.023026    37.518440    0.124944    -1.629864    -11.368363    39.818550    0.000000    0.000000    0.000000    -19.060654    -9.100947    -10.297262    6.829854    35.017017    -5.394558    13.772910    -17.774517    -6.098940    0.000000    0.000000    0.000000    
25.193680    151.882538    -29.542002    3.559373    5.264896    -51.880478    1.489861    -0.621084    1.640563    1.532401    -1.066500    0.558218    15.150737    -1.467775    13.944180    -8.720315    6.011242    11.280563    12.272193    -1.523444    -17.191257    -8.069726    -18.336058    -37.628567    6.301923    -37.524929    -27.821186    -25.493729    -27.013525    -45.490170    -8.566216    1.717142    -0.734775    35.197308    3.814945    78.107468    7.956674    -3.579530    103.576431    4.483953    -12.831280    20.006971    27.885077    -28.759197    12.803107    -23.301064    37.824776    0.341474    -1.685642    -11.408823    39.725876    0.000000    0.000000    0.000000    -19.102205    -9.528427    -10.529513    6.961216    35.983490    -5.261835    13.575843    -18.606134    -5.850179    0.000000    0.000000    0.000000    
25.146469    151.511856    -30.108833    3.572543    5.244865    -51.844017    1.496281    -0.540744    1.616068    1.478309    -1.018611    0.549258    15.190847    -1.448683    13.966413    -8.780639    5.884974    11.284688    12.307131    -1.562143    -17.164442    -8.101618    -18.309692    -37.613842    6.367873    -37.493626    -27.859177    -25.445292    -26.983589    -45.479076    -8.569573    1.671195    -0.759590    35.230671    3.768008    78.097206    7.959732    -3.589234    103.663666    4.472912    -12.859367    20.072407    28.223377    -29.018301    12.932799    -23.573549    38.115959    0.537898    -1.727511    -11.456440    39.671623    0.000000    0.000000    0.000000    -19.178562    -9.983505    -10.673179    7.195665    36.975288    -5.199153    13.377377    -19.379274    -5.667171    0.000000    0.000000    0.000000    
